<svg width="20" height="20" viewBox="0 0 20 20" fill="none" xmlns="http://www.w3.org/2000/svg">
<path d="M10 18.3333C14.6024 18.3333 18.3333 14.6024 18.3333 9.99999C18.3333 5.39762 14.6024 1.66666 10 1.66666C5.39762 1.66666 1.66666 5.39762 1.66666 9.99999C1.66666 14.6024 5.39762 18.3333 10 18.3333Z" fill="#FFB190"/>
<path d="M11.6605 5.83334H10.2453C9.40557 5.83334 8.47151 6.16575 8.47151 7.31139C8.47561 7.71058 8.47151 8.09288 8.47151 8.52313H7.5V9.9781H8.50157V14.1667H10.342V9.95045H11.5568L11.6667 8.51905H10.3103C10.3103 8.51905 10.3133 7.8823 10.3103 7.69739C10.3103 7.24466 10.8108 7.27058 10.8409 7.27058C11.0791 7.27058 11.5423 7.27124 11.6612 7.27058L11.6605 5.83334Z" fill="white"/>
</svg>
