<svg width="20" height="20" viewBox="0 0 20 20" fill="none" xmlns="http://www.w3.org/2000/svg">
<g clip-path="url(#clip0_1_388)">
<path d="M1.66666 14.0942V14.0949C1.67665 14.4649 1.67973 14.837 1.74218 15.2047C1.80836 15.5937 1.90297 15.9731 2.08347 16.3261C2.32749 16.804 2.66262 17.2076 3.08565 17.5372C3.38937 17.7739 3.72116 17.9618 4.08844 18.0804C4.624 18.253 5.17651 18.3191 5.73709 18.3224C6.08683 18.3246 6.43635 18.3333 6.78623 18.3319C9.32708 18.3212 11.868 18.3502 14.4089 18.3162C14.7461 18.3116 15.0778 18.2705 15.4087 18.2101C16.0429 18.0941 16.6035 17.8236 17.083 17.3961C17.642 16.898 18.0191 16.2884 18.1893 15.5526C18.3007 15.0717 18.3286 14.5837 18.3333 14.0941V13.9964C18.3333 13.9585 18.3189 5.67681 18.3176 5.56735C18.3139 5.26665 18.2917 4.96821 18.2353 4.67234C18.1666 4.31179 18.0697 3.96047 17.8969 3.63428C17.7145 3.28966 17.4859 2.9798 17.2033 2.70902C16.7703 2.29416 16.2707 2.00078 15.689 1.84559C15.1636 1.70545 14.6276 1.67443 14.0877 1.67491C14.0869 1.67479 14.0848 1.66931 14.0847 1.66666H5.91272C5.91256 1.66944 5.91246 1.67223 5.91227 1.67491C5.60585 1.68052 5.29899 1.67822 4.99413 1.71598C4.66017 1.75747 4.32942 1.81994 4.01331 1.93659C3.51542 2.12061 3.08283 2.40722 2.71331 2.78986C2.29466 3.22337 1.99956 3.72473 1.84298 4.30855C1.70329 4.82944 1.67289 5.3607 1.67214 5.89571" fill="#FFB190"/>
<path d="M10.063 15C10.0346 15 10.0076 14.9989 9.98701 14.9979C9.97069 14.9993 9.95384 15 9.93696 15C9.34154 15 8.94343 14.7002 8.5921 14.4354C8.34029 14.246 8.10281 14.0671 7.82459 14.0178C7.68795 13.9936 7.55202 13.9814 7.42069 13.9814C7.18406 13.9814 6.99705 14.0205 6.86051 14.0489C6.77649 14.0664 6.70405 14.0814 6.64805 14.0814C6.58941 14.0814 6.51815 14.0675 6.48846 13.9595C6.46492 13.8743 6.44804 13.7918 6.43175 13.7123C6.39099 13.5137 6.36142 13.3924 6.2916 13.3809C5.54481 13.2582 5.10358 13.0774 5.01569 12.8585C5.00675 12.8366 5.00151 12.8132 5.00019 12.7894C4.99853 12.7579 5.00785 12.7269 5.02635 12.7024C5.04485 12.6778 5.07123 12.6613 5.10042 12.6562C5.69348 12.5522 6.2208 12.2183 6.66782 11.6635C7.01411 11.234 7.18416 10.8236 7.20242 10.7783C7.20323 10.7762 7.20413 10.7742 7.2051 10.7722C7.29127 10.586 7.30841 10.425 7.25621 10.294C7.15999 10.0523 6.8413 9.94463 6.63046 9.87336C6.57802 9.8557 6.52842 9.83896 6.48891 9.82226C6.30201 9.74362 5.99462 9.57747 6.03557 9.34814C6.0654 9.18091 6.27305 9.06445 6.44088 9.06445C6.48748 9.06445 6.52877 9.07316 6.56353 9.09054C6.75317 9.18518 6.92378 9.23315 7.0705 9.23315C7.25297 9.23315 7.3411 9.15915 7.36241 9.13812C7.35689 9.03197 7.35088 8.92586 7.34439 8.81978C7.30156 8.09403 7.24814 7.19085 7.46503 6.67291C8.11419 5.12256 9.49087 5.00201 9.89721 5.00201C9.96428 5.00141 10.0313 5.00074 10.0984 5C10.5059 5 11.8854 5.1207 12.535 6.67198C12.7519 7.19025 12.6984 8.0942 12.6554 8.82071L12.6534 8.85548C12.6475 8.95413 12.6421 9.04749 12.6375 9.138C12.6575 9.15768 12.7382 9.22552 12.9023 9.23239C13.0422 9.22668 13.2029 9.17893 13.3799 9.09066C13.4346 9.06329 13.4952 9.05761 13.5363 9.05761C13.5985 9.05761 13.6618 9.0705 13.7145 9.09394L13.7173 9.09509C13.8675 9.15188 13.9659 9.26537 13.968 9.3846C13.9699 9.49575 13.8924 9.66187 13.511 9.82232C13.4719 9.83879 13.4221 9.85564 13.3694 9.87342C13.1584 9.94477 12.84 10.0524 12.7437 10.294C12.6915 10.425 12.7087 10.5859 12.7949 10.772C12.7958 10.7741 12.7966 10.7761 12.7976 10.7783C12.8241 10.8445 13.4664 12.4046 14.8996 12.6561C14.9287 12.6612 14.9551 12.6777 14.9736 12.7022C14.9921 12.7268 15.0014 12.7578 14.9998 12.7893C14.9984 12.8133 14.993 12.8369 14.9839 12.8589C14.8967 13.0767 14.4555 13.2572 13.7085 13.3801C13.6383 13.3916 13.6088 13.5123 13.5684 13.7099C13.5517 13.7915 13.5347 13.8715 13.5115 13.9556C13.4897 14.0347 13.4414 14.0733 13.3637 14.0733H13.352C13.3015 14.0733 13.2299 14.0635 13.1395 14.0447C12.9816 14.012 12.8045 13.9815 12.5793 13.9815C12.448 13.9815 12.3121 13.9938 12.1753 14.0179C11.8974 14.0672 11.66 14.2458 11.4086 14.435C11.0566 14.7001 10.6583 15 10.063 15Z" fill="white"/>
</g>
<defs>
<clipPath id="clip0_1_388">
<rect width="20" height="20" fill="white"/>
</clipPath>
</defs>
</svg>
