<svg width="20" height="20" viewBox="0 0 20 20" fill="none" xmlns="http://www.w3.org/2000/svg">
<mask id="mask0_1_392" style="mask-type:luminance" maskUnits="userSpaceOnUse" x="1" y="1" width="18" height="18">
<path d="M18.3333 1.66666H1.66667V18.3333H18.3333V1.66666Z" fill="white"/>
</mask>
<g mask="url(#mask0_1_392)">
<path d="M16.3802 1.66666H3.61979C2.54111 1.66666 1.66667 2.5411 1.66667 3.61978V16.3802C1.66667 17.4589 2.54111 18.3333 3.61979 18.3333H16.3802C17.4589 18.3333 18.3333 17.4589 18.3333 16.3802V3.61978C18.3333 2.5411 17.4589 1.66666 16.3802 1.66666Z" fill="#FFB190"/>
<path d="M12.9954 4.79166H14.5927L11.1031 9.20405L15.2083 15.2083H11.994L9.47634 11.5668L6.59561 15.2083H4.99737L8.72984 10.4888L4.79167 4.79166H8.08764L10.3633 8.12018L12.9954 4.79166ZM12.4348 14.1506H13.3199L7.60671 5.79379H6.65693L12.4348 14.1506Z" fill="white"/>
</g>
</svg>
